<svg width="490" height="950" viewBox="0 0 490 950" fill="none" xmlns="http://www.w3.org/2000/svg">
<path d="M0 950C0 950 204.252 730.73 185.915 464.187C167.578 197.644 0 0 0 0H490V950H0Z" fill="#0F125E" fill-opacity="0.35"/>
<path d="M566.504 119.621C539.979 139.689 507.536 150.372 474.277 149.99C441.018 149.608 408.829 138.183 382.773 117.51C356.716 96.8377 338.269 68.0911 330.332 35.7905C322.396 3.48998 325.421 -30.5322 338.931 -60.9262L415.065 -27.0851C409.059 -13.5733 407.715 1.55149 411.243 15.9109C414.771 30.2702 422.972 43.0497 434.555 52.2397C446.139 61.4298 460.449 66.5091 475.234 66.6789C490.02 66.8487 504.442 62.0995 516.234 53.1779L566.504 119.621Z" fill="white" fill-opacity="0.05"/>
<path d="M536.336 521.747C522.239 532.413 505.566 539.151 488.017 541.275C470.468 543.4 452.669 540.834 436.434 533.84C420.199 526.846 406.109 515.673 395.598 501.46C385.087 487.247 378.531 470.502 376.599 452.93C374.667 435.359 377.427 417.589 384.598 401.432C391.77 385.275 403.096 371.307 417.423 360.952C431.75 350.597 448.566 344.225 466.157 342.486C483.749 340.746 501.487 343.7 517.565 351.048L489.971 411.43C484.567 408.96 478.605 407.967 472.692 408.552C466.779 409.137 461.127 411.278 456.311 414.759C451.496 418.239 447.689 422.934 445.279 428.365C442.868 433.795 441.941 439.768 442.59 445.674C443.239 451.58 445.443 457.208 448.976 461.985C452.509 466.763 457.245 470.518 462.701 472.869C468.158 475.22 474.141 476.082 480.039 475.368C485.938 474.654 491.541 472.389 496.28 468.804L536.336 521.747Z" fill="white" fill-opacity="0.05"/>
<path d="M56.9291 959.4C60.166 935.82 71.7069 914.168 89.4777 898.335C107.249 882.503 130.084 873.527 153.879 873.022C177.675 872.518 200.87 880.517 219.296 895.582C237.723 910.647 250.171 931.79 254.405 955.211L205.848 963.989C203.703 952.125 197.397 941.414 188.063 933.783C178.729 926.152 166.98 922.1 154.926 922.355C142.872 922.611 131.304 927.158 122.302 935.178C113.3 943.198 107.454 954.166 105.815 966.111L56.9291 959.4Z" fill="white" fill-opacity="0.05"/>
<circle cx="219.002" cy="347.999" r="50" transform="rotate(23 219.002 347.999)" fill="url(#paint0_linear_306_9)" fill-opacity="0.05"/>
<defs>
<linearGradient id="paint0_linear_306_9" x1="219.002" y1="297.999" x2="219.002" y2="397.999" gradientUnits="userSpaceOnUse">
<stop stop-color="white"/>
<stop offset="1" stop-color="white" stop-opacity="0"/>
</linearGradient>
</defs>
</svg>
