<svg width="400" height="280" viewBox="0 0 400 280" fill="none" xmlns="http://www.w3.org/2000/svg">
<g opacity="0.8" clip-path="url(#clip0_52_645)">
<path d="M271.481 279.105C271.091 279.408 270.688 279.704 270.282 279.997H220.92C220.637 279.704 220.353 279.408 220.074 279.105C217.795 276.609 215.789 273.916 214.084 271.064C210.031 264.398 208.635 255.66 208.635 246.76C208.635 246.217 208.639 245.673 208.651 245.129C208.697 242.633 208.848 240.132 209.074 237.673C209.115 237.246 209.156 236.822 209.202 236.399C209.567 232.871 210.08 229.437 210.663 226.228C210.737 225.819 210.811 225.415 210.889 225.013C212.077 218.64 213.67 212.335 215.66 206.131C215.66 206.131 215.726 206.146 215.853 206.176C216.219 206.27 217.093 206.491 218.378 206.839C221.918 207.799 228.565 209.733 236.231 212.609C236.65 212.762 237.073 212.924 237.5 213.089C243.985 215.53 250.263 218.408 256.28 221.7C256.654 221.906 257.024 222.116 257.393 222.326V222.356L256.584 246.262L263.811 226.359C265.285 227.383 266.693 228.444 268.036 229.542C268.406 229.842 268.775 230.149 269.132 230.468C272.183 233.021 274.786 235.985 276.851 239.259C287.662 257.054 283.125 270.138 271.481 279.105Z" fill="#F2F2F2"/>
<path d="M264.521 279.997H263.207C263.199 279.701 263.187 279.405 263.166 279.105C262.637 270.112 258.412 260.181 252.659 250.596C252.454 250.247 252.245 249.891 252.023 249.542C249.231 244.984 246.118 240.522 242.904 236.283C242.657 235.953 242.402 235.619 242.148 235.289C237.869 229.715 233.452 224.556 229.46 220.152C229.181 219.837 228.894 219.529 228.611 219.226C222.694 212.748 217.812 208.028 215.853 206.176C215.562 205.902 215.336 205.693 215.18 205.546C215.036 205.404 214.95 205.329 214.934 205.314L215.394 204.894L215.397 204.883L215.866 204.463C215.882 204.482 216.165 204.729 216.666 205.205C217.089 205.599 217.668 206.15 218.379 206.84C220.859 209.239 224.96 213.321 229.707 218.498C229.982 218.798 230.265 219.109 230.548 219.421C233.788 222.993 237.299 227.042 240.777 231.394C241.651 232.489 242.5 233.575 243.322 234.652C243.581 234.982 243.836 235.312 244.082 235.642C247.56 240.223 250.597 244.629 253.193 248.86L253.842 249.921C260.461 260.942 264.025 270.704 264.484 279.105C264.501 279.405 264.513 279.701 264.521 279.997Z" fill="white"/>
<path d="M236.953 211.732C236.719 212.029 236.481 212.321 236.231 212.61C234.348 214.825 232.154 216.805 229.706 218.499C229.349 218.739 228.983 218.986 228.61 219.226C227.591 219.875 226.535 220.476 225.448 221.026C220.969 223.303 216.001 224.664 210.888 225.014C210.724 225.029 210.556 225.041 210.392 225.048C210.318 225.449 210.248 225.85 210.17 226.259C210.334 226.251 210.498 226.244 210.663 226.229C216.078 225.907 221.347 224.489 226.089 222.079C227.249 221.492 228.374 220.848 229.46 220.152C229.829 219.916 230.191 219.669 230.548 219.421C233.166 217.605 235.504 215.476 237.499 213.089C237.737 212.801 237.971 212.508 238.201 212.216C237.774 212.051 237.36 211.89 236.953 211.732Z" fill="white"/>
<path d="M256.728 220.854C256.584 221.138 256.432 221.42 256.28 221.701C253.352 227.027 248.867 231.51 243.322 234.653C242.936 234.874 242.546 235.088 242.147 235.29C242.028 235.354 241.901 235.421 241.782 235.481C236.824 237.993 231.281 239.387 225.613 239.547C219.946 239.707 214.319 238.628 209.201 236.4C209.078 236.347 208.959 236.295 208.84 236.242C208.794 236.67 208.753 237.097 208.721 237.528C208.836 237.577 208.955 237.629 209.074 237.674C214.339 239.89 220.102 240.942 225.895 240.744C231.689 240.546 237.349 239.104 242.418 236.535C242.583 236.452 242.743 236.37 242.903 236.284C243.301 236.074 243.695 235.86 244.081 235.643C249.765 232.408 254.369 227.813 257.393 222.357C257.553 222.076 257.705 221.791 257.853 221.502C257.479 221.285 257.105 221.067 256.728 220.854Z" fill="white"/>
<path d="M268.253 228.691C268.184 228.976 268.114 229.261 268.036 229.542C265.924 237.456 260.624 244.353 253.193 248.86C252.811 249.096 252.417 249.321 252.023 249.542C251.6 249.775 251.177 250.007 250.741 250.225C244.054 253.604 236.354 254.934 228.776 254.016C221.198 253.099 214.143 249.984 208.651 245.13C208.557 245.051 208.466 244.969 208.376 244.886C208.376 245.445 208.372 245.996 208.38 246.551C208.462 246.622 208.548 246.693 208.635 246.761C214.353 251.491 221.549 254.47 229.215 255.28C236.88 256.09 244.631 254.691 251.382 251.278C251.817 251.061 252.244 250.836 252.659 250.596C253.061 250.378 253.451 250.153 253.841 249.921C261.379 245.368 266.82 238.445 269.132 230.468C269.21 230.198 269.288 229.929 269.358 229.655C269.001 229.325 268.627 229.014 268.253 228.691Z" fill="white"/>
<path d="M233.828 167.646H0V7.47461H233.828V167.646Z" fill="white"/>
<path d="M56.6611 40.904C61.8015 40.904 65.9686 37.0994 65.9686 32.4061C65.9686 27.7128 61.8015 23.9082 56.6611 23.9082C51.5206 23.9082 47.3535 27.7128 47.3535 32.4061C47.3535 37.0994 51.5206 40.904 56.6611 40.904Z" fill="#E6E6E6"/>
<path d="M78.1579 26.7402C77.7469 26.7409 77.3531 26.8904 77.0628 27.156C76.7724 27.4215 76.6094 27.7814 76.6094 28.1566C76.6094 28.5317 76.7724 28.8916 77.0628 29.1571C77.3531 29.4227 77.7469 29.5722 78.1579 29.5729H191.418C191.829 29.5722 192.222 29.4227 192.513 29.1571C192.803 28.8916 192.966 28.5317 192.966 28.1566C192.966 27.7814 192.803 27.4215 192.513 27.156C192.222 26.8904 191.829 26.7409 191.418 26.7402H78.1579Z" fill="#E6E6E6"/>
<path d="M78.1561 35.2383C77.7447 35.2375 77.3498 35.3859 77.0582 35.651C76.7667 35.916 76.6024 36.276 76.6016 36.6516C76.6007 37.0272 76.7633 37.3878 77.0536 37.654C77.3439 37.9201 77.7381 38.0701 78.1496 38.0709H149.754C149.958 38.0713 150.16 38.0349 150.348 37.9638C150.537 37.8928 150.708 37.7885 150.852 37.657C150.997 37.5254 151.111 37.3692 151.189 37.1972C151.267 37.0252 151.308 36.8408 151.308 36.6546C151.308 36.4684 151.267 36.284 151.189 36.112C151.111 35.94 150.997 35.7838 150.852 35.6522C150.708 35.5207 150.537 35.4164 150.348 35.3454C150.16 35.2743 149.958 35.238 149.754 35.2383H78.1561Z" fill="#E6E6E6"/>
<path d="M233.828 167.646H0V7.47461H233.828V167.646ZM2.61712 165.257H231.211V9.86409H2.61712V165.257Z" fill="#E6E6E6"/>
<path d="M13.0684 56.3203V151.588H220.758V56.3203H13.0684ZM219.759 79.9092H169.085V57.232H219.759V79.9092ZM117.412 79.9092V57.232H168.086V79.9092H117.412ZM168.086 80.8209V103.498H117.412V80.8209H168.086ZM116.414 79.9092H65.7395V57.232H116.414V79.9092ZM116.414 80.8209V103.498H65.7395V80.8209H116.414ZM64.741 103.498H14.0669V80.8209H64.741V103.498ZM64.741 104.41V127.087H14.0669V104.41H64.741ZM65.7395 104.41H116.414V127.087H65.7395V104.41ZM116.414 127.999V150.676H65.7395V127.999H116.414ZM117.412 127.999H168.086V150.676H117.412V127.999ZM117.412 127.087V104.41H168.086V127.087H117.412ZM169.085 104.41H219.759V127.087H169.085V104.41ZM169.085 103.498V80.8209H219.759V103.498H169.085ZM64.741 57.232V79.9092H14.0669V57.232H64.741ZM14.0669 127.999H64.741V150.676H14.0669V127.999ZM169.085 150.676V127.999H219.759V150.676H169.085Z" fill="#E4E4E4"/>
<path d="M98.3279 81.9514L77.6625 81.5242C75.5954 74.2134 76.526 67.2524 78.1755 60.8379L98.8409 61.2651C96.7506 68.0091 96.5741 75.1279 98.3279 81.9514Z" fill="#1E8CF1"/>
<path d="M81.7148 65.4094L81.7258 64.6914L92.4323 65.0406L92.4208 65.7585L81.7148 65.4094Z" fill="white"/>
<path d="M81.6699 68.2804L81.6809 67.5625L92.3869 67.9121L92.3759 68.63L81.6699 68.2804Z" fill="white"/>
<path d="M81.625 71.1515L81.6365 70.4336L92.3425 70.7832L92.3315 71.5011L81.625 71.1515Z" fill="white"/>
<path d="M81.5801 74.0246L81.5911 73.3066L92.2975 73.6563L92.2861 74.3742L81.5801 74.0246Z" fill="white"/>
<path d="M81.5352 76.8957L81.5461 76.1777L92.2526 76.5274L92.2411 77.2453L81.5352 76.8957Z" fill="white"/>
<path d="M53.3943 134.826L32.7289 134.399C30.6618 127.088 31.5924 120.127 33.2419 113.713L53.9073 114.14C51.817 120.884 51.6405 128.003 53.3943 134.826Z" fill="#F0F0F0"/>
<path d="M36.7832 118.284L36.7942 117.566L47.5007 117.916L47.4892 118.633L36.7832 118.284Z" fill="white"/>
<path d="M36.7383 121.155L36.7493 120.438L47.4552 120.787L47.4443 121.505L36.7383 121.155Z" fill="white"/>
<path d="M36.6934 124.028L36.7048 123.311L47.4108 123.66L47.3998 124.378L36.6934 124.028Z" fill="white"/>
<path d="M36.6484 126.9L36.6594 126.182L47.3659 126.531L47.3544 127.249L36.6484 126.9Z" fill="white"/>
<path d="M36.6035 129.771L36.6145 129.053L47.321 129.402L47.3095 130.12L36.6035 129.771Z" fill="white"/>
<path d="M161.234 110.668L140.569 110.241C138.502 102.93 139.432 95.9692 141.082 89.5547L161.747 89.9819C159.657 96.7259 159.48 103.845 161.234 110.668Z" fill="#F0F0F0"/>
<path d="M144.621 94.1261L144.632 93.4082L155.339 93.7574L155.327 94.4753L144.621 94.1261Z" fill="white"/>
<path d="M144.576 96.9972L144.587 96.2793L155.293 96.6289L155.282 97.3467L144.576 96.9972Z" fill="white"/>
<path d="M144.531 99.8683L144.543 99.1504L155.249 99.5L155.238 100.218L144.531 99.8683Z" fill="white"/>
<path d="M144.486 102.741L144.497 102.023L155.204 102.373L155.192 103.091L144.486 102.741Z" fill="white"/>
<path d="M144.441 105.612L144.452 104.895L155.159 105.244L155.147 105.962L144.441 105.612Z" fill="white"/>
<path d="M152.248 106.11L131.582 105.682C129.515 98.3716 130.446 91.4106 132.095 84.9961L152.761 85.4233C150.671 92.1673 150.494 99.2861 152.248 106.11Z" fill="#1E8CF1"/>
<path d="M135.635 89.5675L135.646 88.8496L146.352 89.1988L146.341 89.9167L135.635 89.5675Z" fill="white"/>
<path d="M135.59 92.4386L135.601 91.7207L146.307 92.0703L146.296 92.7883L135.59 92.4386Z" fill="white"/>
<path d="M135.545 95.3117L135.556 94.5938L146.262 94.9434L146.251 95.6613L135.545 95.3117Z" fill="white"/>
<path d="M135.5 98.1828L135.511 97.4648L146.217 97.8145L146.206 98.5324L135.5 98.1828Z" fill="white"/>
<path d="M135.455 101.054L135.466 100.336L146.173 100.686L146.161 101.403L135.455 101.054Z" fill="white"/>
<path d="M228.467 147.748L207.801 147.321C205.734 140.01 206.665 133.049 208.314 126.635L228.98 127.062C226.889 133.806 226.713 140.925 228.467 147.748Z" fill="#1E8CF1"/>
<path d="M211.854 131.206L211.865 130.488L222.571 130.838L222.56 131.556L211.854 131.206Z" fill="white"/>
<path d="M211.809 134.077L211.82 133.359L222.526 133.709L222.515 134.427L211.809 134.077Z" fill="white"/>
<path d="M211.764 136.95L211.775 136.232L222.481 136.582L222.47 137.299L211.764 136.95Z" fill="white"/>
<path d="M211.719 139.821L211.73 139.104L222.436 139.453L222.425 140.171L211.719 139.821Z" fill="white"/>
<path d="M211.674 142.694L211.685 141.977L222.391 142.326L222.38 143.044L211.674 142.694Z" fill="white"/>
<path d="M206.166 85.5979L185.5 85.1708C183.433 77.8599 184.364 70.8989 186.013 64.4844L206.679 64.9116C204.588 71.6556 204.412 78.7744 206.166 85.5979Z" fill="#F0F0F0"/>
<path d="M189.555 69.0559L189.566 68.3379L200.272 68.6871L200.261 69.4051L189.555 69.0559Z" fill="white"/>
<path d="M189.51 71.9269L189.521 71.209L200.227 71.5586L200.216 72.2765L189.51 71.9269Z" fill="white"/>
<path d="M189.465 74.798L189.476 74.0801L200.182 74.4297L200.171 75.1476L189.465 74.798Z" fill="white"/>
<path d="M189.42 77.671L189.431 76.9531L200.137 77.3027L200.126 78.0207L189.42 77.671Z" fill="white"/>
<path d="M189.375 80.5421L189.386 79.8242L200.092 80.1738L200.081 80.8917L189.375 80.5421Z" fill="white"/>
<path d="M227.352 132.503C228.065 132.343 228.731 132.042 229.302 131.622C229.874 131.201 230.337 130.672 230.66 130.07C230.983 129.468 231.158 128.809 231.172 128.139C231.185 127.469 231.038 126.805 230.74 126.192L243.77 115.066L234.756 113.088L223.765 123.957C222.671 124.482 221.826 125.355 221.391 126.411C220.955 127.467 220.959 128.632 221.401 129.685C221.843 130.739 222.693 131.607 223.79 132.127C224.887 132.646 226.155 132.78 227.352 132.503H227.352Z" fill="#FFB6B6"/>
<path d="M234.083 123.54L228.006 115.718L250.831 94.1635L256.131 60.1884C256.393 58.5091 257.057 56.9029 258.075 55.4841C259.093 54.0653 260.441 52.8685 262.023 51.9788C263.605 51.0891 265.382 50.5283 267.228 50.3361C269.074 50.1439 270.944 50.3252 272.704 50.8669C275.883 51.8487 278.506 53.9417 279.996 56.6867C281.487 59.4317 281.724 62.6045 280.656 65.509L267.134 102.138L234.083 123.54Z" fill="#E4E4E4"/>
<path d="M276.939 268.305L270.194 268.305L266.984 244.549L276.941 244.549L276.939 268.305Z" fill="#FFB6B6"/>
<path d="M280.568 279.999H275.782L274.927 275.873L272.739 279.999H260.043C259.435 280 258.842 279.822 258.352 279.493C257.862 279.163 257.5 278.7 257.319 278.169C257.138 277.639 257.147 277.069 257.345 276.544C257.544 276.019 257.921 275.565 258.422 275.25L268.56 268.857V264.686L279.224 265.267L280.568 279.999Z" fill="#2F2E41"/>
<path d="M318.558 262.037L312.633 264.981L297.377 245.514L306.122 241.17L318.558 262.037Z" fill="#FFB6B6"/>
<path d="M327.868 270.727L323.663 272.816L320.753 269.565L320.991 274.144L309.839 279.684C309.305 279.95 308.691 280.052 308.088 279.977C307.485 279.902 306.924 279.652 306.488 279.266C306.051 278.879 305.761 278.374 305.66 277.826C305.56 277.279 305.654 276.716 305.928 276.22L311.487 266.18L309.303 262.516L318.974 258.373L327.868 270.727Z" fill="#2F2E41"/>
<path d="M279.782 259.846H265.841V214.522L257.211 184.972C251.016 163.84 249.37 141.812 252.364 120.108L252.376 120.019L252.451 119.962C252.672 119.792 274.762 103.116 288.734 115.873C298.152 124.471 289.302 155.391 288.807 157.088V210.389L279.782 259.846Z" fill="#2F2E41"/>
<path d="M248.117 128.34L252.61 87.3161C252.027 86.1974 243.624 79.1113 252.41 66.6525L261.9 46.3147L279.672 46.0625L279.747 46.1308C283.927 49.9399 287.011 54.6342 288.723 59.7954C290.434 64.9566 290.721 70.4243 289.556 75.711L284.319 99.6177L288.857 116.189L248.117 128.34Z" fill="#E4E4E4"/>
<path d="M271.465 214.756L300.104 251.535L311.09 244.404L287.171 199.527L271.465 214.756Z" fill="#2F2E41"/>
<path d="M269.125 42.1807C278.189 42.1807 285.536 35.4726 285.536 27.1978C285.536 18.9229 278.189 12.2148 269.125 12.2148C260.062 12.2148 252.715 18.9229 252.715 27.1978C252.715 35.4726 260.062 42.1807 269.125 42.1807Z" fill="#FFB6B6"/>
<path opacity="0.1" d="M265.092 81.3906L269.585 106.005L265.092 126.517H256.105L260.19 106.005L265.092 81.3906Z" fill="black"/>
<path d="M269.378 147.653C269.924 147.205 270.356 146.653 270.643 146.037C270.931 145.42 271.066 144.753 271.041 144.084C271.016 143.414 270.83 142.758 270.497 142.161C270.163 141.564 269.691 141.04 269.112 140.628L274.87 125.211L265.897 127.341L261.805 141.655C261.111 142.588 260.816 143.722 260.976 144.841C261.136 145.959 261.74 146.986 262.674 147.725C263.607 148.464 264.805 148.865 266.041 148.852C267.276 148.838 268.464 148.412 269.378 147.653Z" fill="#FFB6B6"/>
<path d="M270.696 136.852L261.301 132.564L270.322 103.736L257.477 71.4841C256.842 69.8898 256.599 68.1876 256.766 66.4981C256.933 64.8086 257.505 63.1734 258.441 61.7084C259.378 60.2435 260.657 58.9848 262.186 58.0217C263.716 57.0586 265.458 56.4148 267.291 56.1359C270.602 55.6355 273.995 56.3546 276.726 58.1354C279.456 59.9163 281.302 62.6135 281.857 65.6351L288.817 103.763L270.696 136.852Z" fill="#E4E4E4"/>
<path d="M400 279.454C400 279.526 399.985 279.596 399.955 279.662C399.925 279.728 399.882 279.788 399.826 279.838C399.771 279.889 399.706 279.929 399.633 279.956C399.561 279.983 399.484 279.997 399.406 279.997H76.2445C76.0869 279.997 75.9358 279.94 75.8244 279.838C75.713 279.736 75.6504 279.598 75.6504 279.454C75.6504 279.311 75.713 279.173 75.8244 279.071C75.9358 278.969 76.0869 278.912 76.2445 278.912H399.406C399.563 278.912 399.714 278.97 399.826 279.071C399.937 279.173 400 279.311 400 279.454Z" fill="#CACACA"/>
<path d="M332.949 26.4657C330.878 29.5343 326.493 30.8871 322.603 30.2727C318.713 29.6583 315.333 27.3661 312.837 24.5742C310.34 21.7823 308.614 18.496 306.914 15.2429C305.215 11.9899 303.496 8.70105 301.012 5.89993C298.528 3.09877 295.166 0.788964 291.282 0.14561C289.168 -0.204517 286.774 0.026638 285.231 1.39203C284.168 2.41543 283.587 3.77922 283.615 5.18964C282.942 4.97355 282.222 4.91176 281.518 5.00971C280.813 5.10766 280.146 5.36234 279.574 5.75132C279.003 6.14029 278.545 6.65161 278.241 7.2402C277.938 7.82879 277.797 8.47659 277.832 9.12649C277.775 9.12549 277.718 9.122 277.66 9.122C270.423 5.36527 259.438 7.54762 259.438 11.65C255.467 11.65 250.613 15.2307 250.613 20.6679V20.6679C258.825 20.6679 263.658 30.2743 258.864 37.1622C257.626 38.919 256.262 40.5988 254.78 42.1902H265.049C265.911 41.0616 266.43 39.7453 266.556 38.3744C266.933 39.6198 267.158 40.8996 267.228 42.1902C267.228 42.1902 295.279 45.4903 288.039 19.9629C288.518 19.9411 288.984 19.8122 289.395 19.5874C290.489 18.9859 291.084 17.7136 291.188 16.4225C291.459 16.4886 291.729 16.5545 291.998 16.6202C293.928 17.0959 295.932 17.7122 297.257 19.0791C299.496 21.3893 299.025 24.8957 299.838 27.8898C300.818 31.5004 303.751 34.4208 307.009 36.6545C310.509 39.0545 314.598 40.8779 318.956 41.2564C323.314 41.6348 327.951 40.4249 330.97 37.5313C333.99 34.6376 335.041 29.9762 332.949 26.4657Z" fill="#2F2E41"/>
</g>
<defs>
<clipPath id="clip0_52_645">
<rect width="400" height="280" fill="white"/>
</clipPath>
</defs>
</svg>
